<svg xmlns="http://www.w3.org/2000/svg" width="1200" height="800" viewBox="0 0 1200 800" preserveAspectRatio="xMidYMid slice" role="img"><title>Woodgrain finish trim boards</title><defs><filter id="grain" x="0" y="0" width="100%" height="100%"><feTurbulence type="fractalNoise" baseFrequency="0.0032 0.075" numOctaves="4" seed="7" result="n"/><feColorMatrix type="saturate" values="0" in="n" result="g"/><feDiffuseLighting in="g" surfaceScale="3.2" lighting-color="#ffffff" diffuseConstant="1.05" result="lit"><feDistantLight azimuth="235" elevation="55"/></feDiffuseLighting><feComponentTransfer in="lit"><feFuncR type="linear" slope=".48" intercept=".53"/><feFuncG type="linear" slope=".48" intercept=".515"/><feFuncB type="linear" slope=".48" intercept=".49"/></feComponentTransfer></filter><linearGradient id="light" x1="0" y1="0" x2="1" y2="1"><stop offset="0" stop-color="#fff" stop-opacity=".35"/><stop offset=".55" stop-color="#fff" stop-opacity="0"/><stop offset="1" stop-color="#5b4a32" stop-opacity=".18"/></linearGradient><linearGradient id="edgeTop" x1="0" y1="0" x2="0" y2="1"><stop offset="0" stop-color="#fff" stop-opacity=".95"/><stop offset="1" stop-color="#fff" stop-opacity="0"/></linearGradient><linearGradient id="edgeBot" x1="0" y1="0" x2="0" y2="1"><stop offset="0" stop-color="#3a2f20" stop-opacity="0"/><stop offset="1" stop-color="#3a2f20" stop-opacity=".22"/></linearGradient><filter id="sb" x="-10%" y="-50%" width="120%" height="200%"><feGaussianBlur stdDeviation="6"/></filter></defs><rect x="0" y="0" width="1200" height="800" fill="#8f877b"/><rect x="-20" y="274" width="1240" height="22" fill="#000" fill-opacity=".45" filter="url(#sb)"/><rect x="-20" y="-20" width="1240" height="300" filter="url(#grain)"/><rect x="-20" y="-20" width="1240" height="300" fill="url(#light)"/><rect x="-20" y="-20" width="1240" height="10" fill="url(#edgeTop)"/><rect x="-20" y="254" width="1240" height="26" fill="url(#edgeBot)"/><rect x="-20" y="277" width="1240" height="3" fill="#000" fill-opacity=".18"/><rect x="-20" y="562" width="1240" height="22" fill="#000" fill-opacity=".45" filter="url(#sb)"/><rect x="-20" y="318" width="1240" height="250" filter="url(#grain)"/><rect x="-20" y="318" width="1240" height="250" fill="url(#light)"/><rect x="-20" y="318" width="1240" height="10" fill="url(#edgeTop)"/><rect x="-20" y="542" width="1240" height="26" fill="url(#edgeBot)"/><rect x="-20" y="565" width="1240" height="3" fill="#000" fill-opacity=".18"/><rect x="-20" y="860" width="1240" height="22" fill="#000" fill-opacity=".45" filter="url(#sb)"/><rect x="-20" y="606" width="1240" height="260" filter="url(#grain)"/><rect x="-20" y="606" width="1240" height="260" fill="url(#light)"/><rect x="-20" y="606" width="1240" height="10" fill="url(#edgeTop)"/><rect x="-20" y="840" width="1240" height="26" fill="url(#edgeBot)"/><rect x="-20" y="863" width="1240" height="3" fill="#000" fill-opacity=".18"/><polygon points="780,318 800,318 830,568 810,568" fill="#000" fill-opacity=".10"/><line x1="800" y1="318" x2="830" y2="568" stroke="#fff" stroke-opacity=".7" stroke-width="1.5"/></svg>
