<svg xmlns="http://www.w3.org/2000/svg" width="1200" height="1200" viewBox="0 0 1200 1200" preserveAspectRatio="xMidYMid slice" role="img"><title>Novex trim boards</title><defs><radialGradient id="bg" cx=".5" cy=".42" r=".75"><stop offset="0" stop-color="#efeae2"/><stop offset=".65" stop-color="#e2dbcf"/><stop offset="1" stop-color="#d3cbbd"/></radialGradient><filter id="soft" x="-30%" y="-30%" width="160%" height="160%"><feGaussianBlur stdDeviation="22"/></filter><filter id="tight" x="-30%" y="-30%" width="160%" height="160%"><feGaussianBlur stdDeviation="5"/></filter></defs><rect x="0" y="0" width="1200" height="1200" fill="url(#bg)"/><polygon points="-1131.7,-451.8 1029.9,796.2 726,1023.7 -1480.7,-250.3" fill="rgba(70,55,35,0.3)" filter="url(#soft)"/><polygon points="-1136.2,-466.1 1025.4,781.9 721.5,1009.4 -1485.2,-264.6" fill="rgba(60,45,30,0.2)" filter="url(#tight)"/><polygon points="-1305,-401.1 -1136.2,-498.6 969.1,716.9 800.3,814.4" fill="#fcfcfb" stroke="rgba(60,48,30,.10)" stroke-width="0.8" stroke-linejoin="round"/><polygon points="-1305,-372.5 -1305,-401.1 800.3,814.4 800.3,843" fill="#f2efeb" stroke="rgba(60,48,30,.10)" stroke-width="0.8" stroke-linejoin="round"/><polygon points="969.1,745.5 800.3,843 800.3,814.4 969.1,716.9" fill="#e2ddd5" stroke="rgba(60,48,30,.10)" stroke-width="0.8" stroke-linejoin="round"/><polygon points="-1485.2,-297.1 -1316.3,-394.6 845.3,853.4 676.4,950.9" fill="#fcfcfb" stroke="rgba(60,48,30,.10)" stroke-width="0.8" stroke-linejoin="round"/><polygon points="-1485.2,-268.5 -1485.2,-297.1 676.4,950.9 676.4,979.5" fill="#f2efeb" stroke="rgba(60,48,30,.10)" stroke-width="0.8" stroke-linejoin="round"/><polygon points="845.3,882 676.4,979.5 676.4,950.9 845.3,853.4" fill="#e2ddd5" stroke="rgba(60,48,30,.10)" stroke-width="0.8" stroke-linejoin="round"/><polygon points="-1296,-434.9 -1165.4,-510.3 894.8,679.2 764.2,754.6" fill="#fcfcfb" stroke="rgba(60,48,30,.10)" stroke-width="0.8" stroke-linejoin="round"/><polygon points="-1296,-406.3 -1296,-434.9 764.2,754.6 764.2,783.2" fill="#f2efeb" stroke="rgba(60,48,30,.10)" stroke-width="0.8" stroke-linejoin="round"/><polygon points="894.8,707.8 764.2,783.2 764.2,754.6 894.8,679.2" fill="#e2ddd5" stroke="rgba(60,48,30,.10)" stroke-width="0.8" stroke-linejoin="round"/><polygon points="-1437.9,-353 -1307.3,-428.4 818.3,798.8 687.7,874.2" fill="#fcfcfb" stroke="rgba(60,48,30,.10)" stroke-width="0.8" stroke-linejoin="round"/><polygon points="-1437.9,-324.4 -1437.9,-353 687.7,874.2 687.7,902.8" fill="#f2efeb" stroke="rgba(60,48,30,.10)" stroke-width="0.8" stroke-linejoin="round"/><polygon points="818.3,827.4 687.7,902.8 687.7,874.2 818.3,798.8" fill="#e2ddd5" stroke="rgba(60,48,30,.10)" stroke-width="0.8" stroke-linejoin="round"/><polygon points="-1300.5,-453.1 -1215,-502.5 802.5,662.3 717,711.7" fill="#fcfcfb" stroke="rgba(60,48,30,.10)" stroke-width="0.8" stroke-linejoin="round"/><polygon points="-1300.5,-432.3 -1300.5,-453.1 717,711.7 717,732.5" fill="#f2efeb" stroke="rgba(60,48,30,.10)" stroke-width="0.8" stroke-linejoin="round"/><polygon points="802.5,683.1 717,732.5 717,711.7 802.5,662.3" fill="#e2ddd5" stroke="rgba(60,48,30,.10)" stroke-width="0.8" stroke-linejoin="round"/><polygon points="-1399.6,-395.9 -1314,-445.3 771,758.5 685.4,807.9" fill="#fcfcfb" stroke="rgba(60,48,30,.10)" stroke-width="0.8" stroke-linejoin="round"/><polygon points="-1399.6,-375.1 -1399.6,-395.9 685.4,807.9 685.4,828.7" fill="#f2efeb" stroke="rgba(60,48,30,.10)" stroke-width="0.8" stroke-linejoin="round"/><polygon points="771,779.3 685.4,828.7 685.4,807.9 771,758.5" fill="#e2ddd5" stroke="rgba(60,48,30,.10)" stroke-width="0.8" stroke-linejoin="round"/><polygon points="-1329.8,-457 -1271.3,-490.8 710.2,653.2 651.7,687" fill="#fcfcfb" stroke="rgba(60,48,30,.10)" stroke-width="0.8" stroke-linejoin="round"/><polygon points="-1329.8,-436.2 -1329.8,-457 651.7,687 651.7,707.8" fill="#f2efeb" stroke="rgba(60,48,30,.10)" stroke-width="0.8" stroke-linejoin="round"/><polygon points="710.2,674 651.7,707.8 651.7,687 710.2,653.2" fill="#e2ddd5" stroke="rgba(60,48,30,.10)" stroke-width="0.8" stroke-linejoin="round"/></svg>
